<svg width="25" height="18" viewBox="0 0 25 18" fill="none" xmlns="http://www.w3.org/2000/svg">
<path fill-rule="evenodd" clip-rule="evenodd" d="M22.57 2.82025C22.469 2.79184 22.368 2.76344 22.267 2.74451L19.8932 2.32793C18.8224 2.13858 17.7618 1.80721 16.782 1.35276L14.8223 0.434396C14.7213 0.387058 14.6304 0.349187 14.5294 0.320784C13.7617 0.0840925 12.9536 0.25451 12.3778 0.718426C12.6909 0.869909 12.9435 1.11607 13.1051 1.41903C13.4081 1.20128 13.8122 1.12554 14.196 1.24862C14.207 1.25272 14.2184 1.25682 14.2301 1.26102L14.2301 1.26104C14.2724 1.27621 14.3181 1.29265 14.3576 1.31489L16.3173 2.23325C17.388 2.73504 18.5396 3.09481 19.7012 3.29363L22.075 3.71021L22.0968 3.71421C22.1423 3.72251 22.1932 3.73179 22.2367 3.74808C22.8629 3.93743 23.1963 4.57177 22.9842 5.15876L21.176 10.2524C20.3073 12.714 18.3679 14.74 15.8526 15.8099L13.8829 16.6525C13.6607 16.7472 13.4182 16.7567 13.196 16.6904C12.9637 16.6146 12.7717 16.4726 12.6606 16.2643L12.5798 16.1223L12.398 16.3969C12.2566 16.6146 12.0545 16.7756 11.8323 16.8892C12.0747 17.23 12.4384 17.4857 12.8626 17.6182C13.3374 17.7697 13.8627 17.7413 14.3172 17.5425L16.287 16.6998C19.0649 15.5164 21.2164 13.2725 22.1761 10.5553L23.9842 5.46173C24.368 4.37294 23.7418 3.18002 22.57 2.82025ZM7.81259 1.75017L10.0248 0.860213C10.9743 0.472039 12.0551 0.973825 12.338 1.91112L13.8532 7.08994C14.6209 9.73141 14.1865 12.5528 12.6511 14.8724L11.5198 16.586C11.1157 17.2109 10.2571 17.4192 9.57022 17.0783L7.53986 16.0747C4.98422 14.7966 3.07508 12.5906 2.30738 9.97757L0.822484 4.88397C0.549749 3.9372 1.25684 2.98097 2.29728 2.85789L4.50946 2.5928C5.65091 2.45078 6.76205 2.17622 7.81259 1.75017ZM6.00446 7.22248C5.26706 6.82484 4.52967 7.01419 4.0246 7.44024C3.16599 8.25446 3.96399 9.37164 5.02463 9.2391C5.34558 9.23424 5.62408 9.08269 5.8982 8.93353L5.89821 8.93352C6.15899 8.79162 6.41581 8.65186 6.70145 8.64263C6.91357 8.59529 7.04489 8.38701 6.98428 8.18818C6.9062 7.66776 6.51515 7.47559 6.16954 7.30575C6.11276 7.27784 6.0572 7.25054 6.00446 7.22248ZM5.92365 12.6285H5.91355C8.27725 14.4652 11.6814 13.9351 12.3885 10.9717C10.5298 12.0889 8.22675 13.0546 5.92365 12.6285ZM10.3978 7.79201C10.7152 7.78846 11.0378 7.78485 11.3177 7.63906C12.2976 7.23195 12.3784 5.88754 11.1864 5.60351C10.5298 5.47097 9.79245 5.66032 9.36819 6.36093C9.3385 6.40995 9.30604 6.45973 9.27286 6.5106C9.06897 6.82323 8.83786 7.17759 9.05505 7.658C9.11566 7.85682 9.33789 7.9799 9.55002 7.92309C9.80075 7.79868 10.0969 7.79537 10.3978 7.79201ZM18.1946 7.54138C17.8385 7.69575 17.4322 7.87187 17.3275 8.38716C17.3134 8.42683 17.3069 8.46687 17.3072 8.506C17.306 8.6603 17.4166 8.80687 17.58 8.86049C17.8651 8.88812 18.1143 9.03902 18.3671 9.19214C18.634 9.35375 18.905 9.51785 19.2266 9.54216C20.0425 9.68054 20.7389 9.0737 20.6443 8.3984C20.6184 8.19295 20.5193 7.98085 20.3276 7.78123C19.8427 7.33625 19.1255 7.10903 18.3578 7.4688C18.3056 7.49328 18.2507 7.51706 18.1946 7.54138ZM15.1442 6.60503C15.3297 6.92408 15.5383 7.28286 15.2965 7.75239C15.246 7.88493 15.1248 7.97961 14.9834 8.00801C14.9228 7.63877 14.8319 7.26954 14.7309 6.90977L14.4076 5.78312C14.6601 5.92513 14.8925 6.13342 15.0541 6.44585C15.0819 6.49797 15.1127 6.55089 15.1441 6.60495L15.1442 6.60503ZM14.7927 11.871C16.0654 12.1551 16.9443 12.9409 17.3887 13.7551H17.3685C16.6109 13.045 15.6513 12.619 14.6412 12.3728C14.7018 12.2119 14.7523 12.0414 14.7927 11.871Z" fill="#E50012"/>
</svg>
